/* XPM */
static char * blarg_xpm[] = {
"50 50 2 1",
"* c #000000",
". c #ffffff",
"**************************************************",
"**************************************************",
"**************************************************",
"**************************************************",
"***************........***************************",
"************..............************************",
"***********................***********************",
"*********....................*********************",
"********......................********************",
"********......................********************",
"*******........................*******************",
"******..........................******************",
"******..........................******************",
"*****............................*****************",
"*****............................*****************",
"*****............................*****************",
"*****............................*****************",
"*****............................*****************",
"*****............................*****************",
"*****............................*****************",
"*****............................*****************",
"*****............................*****************",
"*****............................*****************",
"******..........................******************",
"******..........................******************",
"*******........................*******************",
"********......................********************",
"********......................********************",
"*********....................*********************",
"***********................***********************",
"************..............************************",
"***************........***************************",
"**************************************************",
"**************************************************",
"**************************************************",
"**************************************************",
"**************************************************",
"**************************************************",
"**************************************************",
"**************************************************",
"**************************************************",
"**************************************************",
"**************************************************",
"**************************************************",
"**************************************************",
"**************************************************",
"**************************************************",
"**************************************************",
"**************************************************",
"**************************************************",
}
